<?xml version="1.0" encoding="UTF-8"?>
<svg width="875px" height="454px" viewBox="0 0 875 454" version="1.1" xmlns="http://www.w3.org/2000/svg" xmlns:xlink="http://www.w3.org/1999/xlink">
    <title>Taleda Logo</title>
    <g id="Taleda-Logo" stroke="none" stroke-width="1" fill="none" fill-rule="evenodd">
        <g id="Group">
            <path d="M95.963,389.9844 L97.368,389.9844 L97.368,392.7964 L57.449,392.7964 L57.449,389.9844 L58.855,389.9844 C60.353,389.9844 61.665,389.4224 62.79,388.2974 C63.914,387.1734 64.899,385.8644 65.742,384.3614 C66.585,382.8634 67.192,381.2264 67.569,379.4424 C67.942,377.6644 68.131,376.0254 68.131,374.5224 L68.131,205.2024 L20.803,205.2024 C17.803,205.2024 15.181,205.8614 12.932,207.1704 C10.683,208.4834 8.807,210.1224 7.309,212.0904 C5.807,214.0584 4.683,216.2144 3.936,218.5564 C3.185,220.9014 2.812,223.1944 2.812,225.4434 L-2.84217094e-14,225.4434 L-2.84217094e-14,194.8014 L155.66,194.8014 L155.66,225.4434 L152.849,225.4434 C152.849,223.1944 152.472,220.9014 151.725,218.5564 C150.974,216.2144 149.85,214.0584 148.352,212.0904 C146.849,210.1224 144.978,208.4834 142.729,207.1704 C140.481,205.8614 137.853,205.2024 134.858,205.2024 L86.967,205.2024 L86.967,374.5224 C86.967,376.0254 87.151,377.6644 87.529,379.4424 C87.902,381.2264 88.513,382.8634 89.356,384.3614 C90.199,385.8644 91.135,387.1734 92.168,388.2974 C93.195,389.4224 94.46,389.9844 95.963,389.9844" id="Fill-1" fill="#000000"></path>
            <path d="M206.1242,366.0889 L206.1242,325.8889 L203.3122,326.4509 C198.8152,327.5749 193.3332,329.0779 186.8672,330.9489 C180.4012,332.8239 174.2612,335.2619 168.4542,338.2589 C162.6432,341.2579 157.6752,344.8199 153.5552,348.9419 C149.4302,353.0659 147.3702,357.8439 147.3702,363.2779 C147.3702,369.2779 149.8042,374.2419 154.6792,378.1779 C159.5502,382.1129 165.9242,384.0809 173.7962,384.0809 C179.9792,384.0809 185.4142,382.7239 190.1012,380.0039 C194.7832,377.2899 199.0962,373.7759 203.0322,369.4619 L206.1242,366.0889 Z M206.1242,392.7959 L206.1242,378.4589 L204.7192,379.8639 C200.0322,384.5509 194.6422,388.2049 188.5552,390.8269 C182.4622,393.4499 175.1032,394.7639 166.4862,394.7639 C159.9242,394.7639 154.3012,394.0119 149.6192,392.5149 C144.9322,391.0169 141.0892,388.9079 138.0932,386.1899 C135.0932,383.4749 132.8922,380.3339 131.4862,376.7719 C130.0812,373.2139 129.3782,369.4619 129.3782,365.5269 C129.3782,359.1569 131.1082,353.5349 134.5792,348.6589 C138.0442,343.7879 143.0572,339.4789 149.6192,335.7279 C156.1772,331.9819 164.1892,328.5599 173.6542,325.4669 C183.1162,322.3749 193.9392,319.3309 206.1242,316.3299 C205.7462,309.0219 204.2492,303.1169 201.6262,298.6199 C199.0002,294.1219 195.9072,290.6089 192.3502,288.0769 C188.7872,285.5479 185.0402,283.8599 181.1042,283.0179 C177.1692,282.1739 173.7962,281.7529 170.9832,281.7529 C166.1082,281.7529 161.8482,282.5039 158.1932,284.0019 C154.5382,285.5029 151.3502,287.4229 148.6352,289.7649 C145.9162,292.1099 143.6182,294.6409 141.7482,297.3549 C139.8722,300.0729 138.3742,302.6519 137.2492,305.0859 L134.7202,305.0859 L134.7202,284.5639 C136.2172,284.3789 137.6232,283.9089 138.9362,283.1579 C140.2452,282.4109 141.8402,281.6599 143.7152,280.9089 C146.5262,279.7849 150.3652,278.1469 155.2412,275.9889 C160.1122,273.8379 166.9512,272.7569 175.7632,272.7569 C186.0682,272.7569 194.4092,274.0699 200.7822,276.6929 C207.1522,279.3189 212.0722,282.7839 215.5422,287.0939 C219.0082,291.4069 221.3052,296.3259 222.4292,301.8529 C223.5542,307.3829 224.1162,313.0539 224.1162,318.8599 L224.1162,374.5229 C224.1162,378.2749 224.9592,381.7879 226.6462,385.0649 C228.3332,388.3469 230.5822,389.9849 233.3942,389.9849 L233.3942,392.7959 L206.1242,392.7959 Z" id="Fill-3" fill="#000000"></path>
            <path d="M253.5753,392.7959 L253.5753,389.9839 C255.0733,389.9839 256.3873,389.4219 257.5123,388.2979 C258.6363,387.1739 259.6203,385.8639 260.4633,384.3609 C261.3063,382.8629 261.9123,381.2269 262.2903,379.4419 C262.6643,377.6639 262.8523,376.0249 262.8523,374.5229 L262.8523,230.5879 C262.8523,227.4029 262.3823,224.4029 261.4473,221.5929 C260.5073,218.7819 257.6953,217.2819 253.0133,217.0949 L253.0133,214.2839 L281.4063,205.5679 L281.4063,374.5229 C281.4063,376.0249 281.5913,377.6639 281.9693,379.4419 C282.3423,381.2269 282.9533,382.8629 283.7963,384.3609 C284.6393,385.8639 285.5753,387.1739 286.6073,388.2979 C287.6363,389.4219 288.9003,389.9839 290.4023,389.9839 L290.4023,392.7959 L253.5753,392.7959 Z" id="Fill-5" fill="#000000"></path>
            <path d="M365.6857,282.0342 C359.1237,282.0342 353.4567,283.3472 348.6787,285.9692 C343.8997,288.5962 339.8227,291.9692 336.4497,296.0902 C333.0767,300.2142 330.4497,304.9012 328.5787,310.1462 C326.7027,315.3942 325.4857,320.6442 324.9237,325.8882 L405.0427,325.8882 C404.8547,320.4552 403.8707,315.1142 402.0907,309.8642 C400.3077,304.6202 397.8267,299.9332 394.6417,295.8072 C391.4527,291.6882 387.4247,288.3592 382.5527,285.8282 C377.6777,283.2992 372.0547,282.0342 365.6857,282.0342 L365.6857,282.0342 Z M324.9237,336.0102 C325.6697,342.5712 327.2647,348.8002 329.7027,354.7042 C332.1357,360.6062 335.3697,365.8072 339.4017,370.3052 C343.4287,374.8042 348.3487,378.4142 354.1607,381.1292 C359.9667,383.8472 366.7137,385.2052 374.4007,385.2052 C378.5207,385.2052 382.8777,384.5992 387.4727,383.3782 C392.0627,382.1612 396.3287,380.4272 400.2637,378.1782 C404.1997,375.9282 407.7127,373.1662 410.8057,369.8852 C413.8987,366.6072 416.0067,362.9042 417.1307,358.7802 L419.6617,358.7802 L419.6617,379.8642 C418.5367,379.8642 417.2717,380.2422 415.8667,380.9882 C414.4607,381.7392 412.8187,382.6762 410.9467,383.8002 C407.1967,386.0492 402.1357,388.4382 395.7667,390.9682 C389.3927,393.4992 380.9587,394.7632 370.4647,394.7632 C362.0317,394.7632 354.0197,393.5422 346.4297,391.1082 C338.8387,388.6762 332.1357,384.9252 326.3297,379.8642 C320.5177,374.8042 315.8787,368.3382 312.4137,360.4672 C308.9437,352.5962 307.2127,343.2252 307.2127,332.3542 C307.2127,325.4232 308.3807,318.3952 310.7267,311.2702 C313.0687,304.1502 316.6307,297.7332 321.4097,292.0132 C326.1887,286.2992 332.3247,281.6602 339.8227,278.0972 C347.3167,274.5402 356.3127,272.7572 366.8107,272.7572 C376.1797,272.7572 384.3807,274.3502 391.4097,277.5362 C398.4367,280.7242 404.2447,285.1262 408.8377,290.7492 C413.4287,296.3712 416.8507,303.0252 419.0997,310.7082 C421.3477,318.3952 422.4727,326.8282 422.4727,336.0102 L324.9237,336.0102 Z" id="Fill-7" fill="#000000"></path>
            <path d="M497.4826,385.4863 C501.4176,385.4863 505.2556,384.6913 509.0076,383.0963 C512.7536,381.5073 516.0366,379.3493 518.8466,376.6313 C521.6586,373.9173 523.9516,370.7273 525.7346,367.0723 C527.5136,363.4193 528.4056,359.4393 528.4056,355.1253 L528.4056,316.6123 C528.4056,311.3673 527.2806,306.6313 525.0316,302.4153 C522.7826,298.1983 519.9706,294.5913 516.5976,291.5913 C513.2246,288.5953 509.5216,286.2983 505.4936,284.7043 C501.4616,283.1143 497.5746,282.3143 493.8276,282.3143 C487.6426,282.3143 482.1126,283.7683 477.2416,286.6723 C472.3656,289.5803 468.2456,293.3273 464.8726,297.9173 C461.4986,302.5113 458.9676,307.6643 457.2826,313.3793 C455.5946,319.0973 454.7516,324.7633 454.7516,330.3853 C454.7516,336.9493 455.6866,343.4583 457.5626,349.9233 C459.4336,356.3893 462.2016,362.2013 465.8546,367.3543 C469.5096,372.5113 473.9596,376.7713 479.2096,380.1443 C484.4536,383.5183 490.5456,385.3013 497.4826,385.4863 L497.4826,385.4863 Z M528.4056,392.7963 L528.4056,380.4263 C525.2156,383.9893 520.9556,387.2693 515.6136,390.2653 C510.2726,393.2603 503.5696,394.7633 495.5136,394.7633 C485.5776,394.7633 476.9116,393.0293 469.5096,389.5623 C462.1046,386.0963 455.9676,381.5503 451.0966,375.9273 C446.2206,370.3053 442.6146,363.8883 440.2736,356.6723 C437.9276,349.4593 436.7596,342.0083 436.7596,334.3223 C436.7596,326.8283 437.9756,319.3793 440.4146,311.9723 C442.8476,304.5713 446.5026,297.9653 451.3786,292.1543 C456.2496,286.3463 462.3406,281.6603 469.6506,278.0973 C476.9606,274.5403 485.3926,272.7573 494.9516,272.7573 C501.3216,272.7573 507.6026,273.9293 513.7876,276.2703 C519.9706,278.6163 524.8426,281.6603 528.4056,285.4073 L528.4056,230.5883 C528.4056,227.4033 527.9346,224.4033 527.0006,221.5923 C526.0596,218.7823 523.3456,217.2823 518.8466,217.0943 L518.8466,214.2843 L546.9596,205.5683 L546.9596,374.5223 C546.9596,376.0253 547.1436,377.6643 547.5216,379.4423 C547.8946,381.2263 548.4576,382.8633 549.2086,384.3613 C549.9556,385.8643 550.8946,387.1733 552.0196,388.2983 C553.1436,389.4223 554.4536,389.9843 555.9556,389.9843 L555.9556,392.7963 L528.4056,392.7963 Z" id="Fill-9" fill="#000000"></path>
            <path d="M651.7746,366.0889 L651.7746,325.8889 L648.9636,326.4509 C644.4646,327.5749 638.9836,329.0779 632.5176,330.9489 C626.0516,332.8239 619.9106,335.2619 614.1036,338.2589 C608.2926,341.2579 603.3256,344.8199 599.2056,348.9419 C595.0806,353.0659 593.0206,357.8439 593.0206,363.2779 C593.0206,369.2779 595.4546,374.2419 600.3296,378.1779 C605.2016,382.1129 611.5746,384.0809 619.4456,384.0809 C625.6296,384.0809 631.0636,382.7239 635.7506,380.0039 C640.4326,377.2899 644.7476,373.7759 648.6816,369.4619 L651.7746,366.0889 Z M651.7746,392.7959 L651.7746,378.4589 L650.3696,379.8639 C645.6826,384.5509 640.2926,388.2049 634.2046,390.8269 C628.1126,393.4499 620.7536,394.7639 612.1366,394.7639 C605.5736,394.7639 599.9516,394.0119 595.2686,392.5149 C590.5826,391.0169 586.7396,388.9079 583.7426,386.1899 C580.7436,383.4749 578.5436,380.3339 577.1366,376.7719 C575.7316,373.2139 575.0286,369.4619 575.0286,365.5269 C575.0286,359.1569 576.7596,353.5349 580.2286,348.6589 C583.6956,343.7879 588.7076,339.4789 595.2686,335.7279 C601.8266,331.9819 609.8386,328.5599 619.3046,325.4669 C628.7666,322.3749 639.5896,319.3309 651.7746,316.3299 C651.3966,309.0219 649.8996,303.1169 647.2766,298.6199 C644.6496,294.1219 641.5566,290.6089 637.9996,288.0769 C634.4376,285.5479 630.6906,283.8599 626.7546,283.0179 C622.8186,282.1739 619.4456,281.7529 616.6346,281.7529 C611.7586,281.7529 607.4976,282.5039 603.8436,284.0019 C600.1896,285.5029 596.9996,287.4229 594.2856,289.7649 C591.5666,292.1099 589.2686,294.6409 587.3976,297.3549 C585.5216,300.0729 584.0246,302.6519 582.9006,305.0859 L580.3696,305.0859 L580.3696,284.5639 C581.8676,284.3789 583.2726,283.9089 584.5866,283.1579 C585.8956,282.4109 587.4896,281.6599 589.3666,280.9089 C592.1766,279.7849 596.0156,278.1469 600.8916,275.9889 C605.7626,273.8379 612.6026,272.7569 621.4136,272.7569 C631.7176,272.7569 640.0596,274.0699 646.4326,276.6929 C652.8026,279.3189 657.7216,282.7839 661.1926,287.0939 C664.6576,291.4069 666.9556,296.3259 668.0796,301.8529 C669.2046,307.3829 669.7666,313.0539 669.7666,318.8599 L669.7666,374.5229 C669.7666,378.2749 670.6106,381.7879 672.2956,385.0649 C673.9836,388.3469 676.2326,389.9849 679.0436,389.9849 L679.0436,392.7959 L651.7746,392.7959 Z" id="Fill-11" fill="#000000"></path>
            <polygon id="Fill-13" fill="#000000" points="52.9279 423.0078 57.1489 423.0078 57.1489 443.4718 69.4069 443.4718 69.4069 447.1178 52.9279 447.1178"></polygon>
            <path d="M100.6007,447.1182 L96.8187,447.1182 L96.8187,444.6862 L96.7507,444.6862 C95.8057,446.4422 93.7117,447.5912 91.7877,447.5912 C87.2287,447.5912 85.2707,445.2952 85.2707,440.7362 L85.2707,429.6602 L89.1207,429.6602 L89.1207,440.3642 C89.1207,443.4372 90.3697,444.5522 92.4627,444.5522 C95.6707,444.5522 96.7507,442.4922 96.7507,439.7912 L96.7507,429.6602 L100.6007,429.6602 L100.6007,447.1182 Z" id="Fill-15" fill="#000000"></path>
            <polygon id="Fill-17" fill="#000000" points="122.8468 437.9336 116.8028 429.6606 121.4618 429.6606 125.1098 435.0296 128.9248 429.6606 133.3818 429.6606 127.4398 437.7306 134.1248 447.1186 129.4988 447.1186 125.0758 440.6686 120.7868 447.1186 116.2618 447.1186"></polygon>
            <path d="M165.1173,447.1182 L161.3353,447.1182 L161.3353,444.6862 L161.2673,444.6862 C160.3223,446.4422 158.2283,447.5912 156.3043,447.5912 C151.7453,447.5912 149.7873,445.2952 149.7873,440.7362 L149.7873,429.6602 L153.6373,429.6602 L153.6373,440.3642 C153.6373,443.4372 154.8863,444.5522 156.9793,444.5522 C160.1873,444.5522 161.2673,442.4922 161.2673,439.7912 L161.2673,429.6602 L165.1173,429.6602 L165.1173,447.1182 Z" id="Fill-19" fill="#000000"></path>
            <path d="M182.6701,429.6602 L186.2831,429.6602 L186.2831,433.0372 L186.3511,433.0372 C186.7891,431.1802 189.0861,429.1872 191.4491,429.1872 C192.3271,429.1872 192.5641,429.2552 192.9011,429.2892 L192.9011,433.0032 C192.3611,432.9352 191.7871,432.8342 191.2471,432.8342 C188.6121,432.8342 186.5201,434.9622 186.5201,438.8112 L186.5201,447.1182 L182.6701,447.1182 L182.6701,429.6602 Z" id="Fill-21" fill="#000000"></path>
            <path d="M206.133,429.6602 L210.354,429.6602 L214.912,442.6942 L214.98,442.6942 L219.404,429.6602 L223.422,429.6602 L216.635,448.0632 C215.385,451.2042 214.474,454.0412 210.455,454.0412 C209.543,454.0412 208.665,453.9722 207.787,453.8382 L207.787,450.5972 C208.395,450.6972 209.003,450.8332 209.611,450.8332 C211.401,450.8332 211.839,449.8872 212.313,448.4012 L212.751,447.0512 L206.133,429.6602 Z" id="Fill-23" fill="#000000"></path>
            <polygon id="Fill-25" fill="#000000" points="260.1505 423.0078 264.4395 423.0078 268.7955 441.4448 268.8635 441.4448 273.7255 423.0078 278.0475 423.0078 282.7755 441.4448 282.8425 441.4448 287.3345 423.0078 291.6225 423.0078 284.9695 447.1178 280.6815 447.1178 275.8525 428.6808 275.7855 428.6808 270.8555 447.1178 266.4995 447.1178"></polygon>
            <path d="M316.8712,438.3721 C315.6892,439.1491 313.8322,439.1151 312.1432,439.4191 C310.4892,439.6891 309.0032,440.2971 309.0032,442.3231 C309.0032,444.0451 311.1982,444.5521 312.5492,444.5521 C314.2372,444.5521 316.8712,443.6741 316.8712,441.2421 L316.8712,438.3721 Z M320.7212,443.2351 C320.7212,444.1811 320.9232,444.5521 321.6332,444.5521 C321.8692,444.5521 322.1732,444.5521 322.5782,444.4841 L322.5782,447.1521 C322.0042,447.3541 320.7882,447.5911 320.1462,447.5911 C318.5942,447.5911 317.4792,447.0511 317.1752,445.4641 C315.6552,446.9491 313.1902,447.5911 311.1312,447.5911 C307.9902,447.5911 305.1532,445.9021 305.1532,442.4921 C305.1532,438.1361 308.6322,437.4271 311.8742,437.0561 C314.6422,436.5491 317.1072,436.8521 317.1072,434.5911 C317.1072,432.5981 315.0482,432.2261 313.4942,432.2261 C311.3332,432.2261 309.8132,433.1041 309.6442,434.9951 L305.7952,434.9951 C306.0652,430.5051 309.8812,429.1871 313.7302,429.1871 C317.1422,429.1871 320.7212,430.5721 320.7212,434.2531 L320.7212,443.2351 Z" id="Fill-27" fill="#000000"></path>
            <path d="M336.6193,429.6602 L339.5223,429.6602 L339.5223,424.4262 L343.3723,424.4262 L343.3723,429.6602 L346.8503,429.6602 L346.8503,432.5302 L343.3723,432.5302 L343.3723,441.8502 C343.3723,443.4372 343.5083,444.2482 345.2293,444.2482 C345.7693,444.2482 346.3103,444.2482 346.8503,444.1132 L346.8503,447.0842 C346.0063,447.1522 345.1953,447.2872 344.3513,447.2872 C340.3333,447.2872 339.5913,445.7332 339.5223,442.8302 L339.5223,432.5302 L336.6193,432.5302 L336.6193,429.6602 Z" id="Fill-29" fill="#000000"></path>
            <path d="M374.9064,435.502 C374.6024,433.375 373.0504,432.227 370.9224,432.227 C368.9294,432.227 366.1274,433.273 366.1274,438.575 C366.1274,441.479 367.4104,444.552 370.7534,444.552 C372.9814,444.552 374.5354,443.066 374.9064,440.567 L378.7564,440.567 C378.0474,445.092 375.2444,447.591 370.7534,447.591 C365.2834,447.591 362.2774,443.708 362.2774,438.575 C362.2774,433.308 365.1474,429.188 370.8884,429.188 C374.9404,429.188 378.3854,431.214 378.7564,435.502 L374.9064,435.502 Z" id="Fill-31" fill="#000000"></path>
            <path d="M395.3976,423.0078 L399.2476,423.0078 L399.2476,431.9558 L399.3146,431.9558 C400.2596,430.3688 402.2516,429.1878 404.5476,429.1878 C408.3306,429.1878 410.7276,431.2138 410.7276,435.1308 L410.7276,447.1178 L406.8776,447.1178 L406.8776,436.1438 C406.8106,433.4078 405.7306,432.2268 403.4676,432.2268 C400.9016,432.2268 399.2476,434.2528 399.2476,436.8198 L399.2476,447.1178 L395.3976,447.1178 L395.3976,423.0078 Z" id="Fill-33" fill="#000000"></path>
            <path d="M440.2677,436.8525 C440.1327,434.4215 438.4777,432.2265 435.8777,432.2265 C433.2097,432.2265 431.3867,434.2525 431.2857,436.8525 L440.2677,436.8525 Z M431.2857,439.3855 C431.2857,442.1205 432.7717,444.5515 435.9797,444.5515 C438.2077,444.5515 439.5587,443.5725 440.2337,441.6475 L443.8807,441.6475 C443.0367,445.4635 439.7947,447.5905 435.9797,447.5905 C430.5087,447.5905 427.4357,443.7755 427.4357,438.4065 C427.4357,433.4425 430.6777,429.1875 435.8777,429.1875 C441.3817,429.1875 444.7587,434.1515 444.1177,439.3855 L431.2857,439.3855 Z" id="Fill-35" fill="#000000"></path>
            <path d="M463.4591,441.5127 C463.6621,443.7417 465.3511,444.5517 467.4101,444.5517 C468.8621,444.5517 471.3951,444.2477 471.2941,442.2557 C471.1921,440.2297 468.3901,439.9927 465.5871,439.3517 C462.7501,438.7437 459.9811,437.7307 459.9811,434.1857 C459.9811,430.3687 464.1011,429.1877 467.2751,429.1877 C470.8551,429.1877 474.0971,430.6727 474.5691,434.5567 L470.5511,434.5567 C470.2131,432.7337 468.6931,432.2267 467.0051,432.2267 C465.8911,432.2267 463.8311,432.4967 463.8311,434.0167 C463.8311,435.9077 466.6671,436.1777 469.5041,436.8197 C472.3071,437.4607 475.1431,438.4737 475.1431,441.9177 C475.1431,446.0717 470.9561,447.5907 467.3431,447.5907 C462.9531,447.5907 459.6781,445.6327 459.6101,441.5127 L463.4591,441.5127 Z" id="Fill-37" fill="#000000"></path>
            <polygon id="Fill-39" fill="#000000" points="514.1011 439.7567 523.9281 439.7567 523.9281 436.1107 514.1011 436.1107"></polygon>
            <path d="M563.7638,427.3975 C567.0048,427.4315 570.0778,426.3175 570.6528,423.4805 L573.7918,423.4805 L573.7918,447.1185 L569.5718,447.1185 L569.5718,430.4365 L563.7638,430.4365 L563.7638,427.3975 Z" id="Fill-41" fill="#000000"></path>
            <path d="M599.2472,431.0449 C599.2472,433.6109 600.5632,436.0089 603.3662,436.0089 C606.2362,436.0089 607.6552,433.6449 607.6552,431.0449 C607.6552,428.5119 606.2362,426.2159 603.3662,426.2159 C600.5632,426.2159 599.2472,428.4789 599.2472,431.0449 L599.2472,431.0449 Z M599.6852,441.1419 C599.8542,443.0659 601.1382,444.3829 603.1302,444.3829 C607.3172,444.3829 607.7902,439.3859 608.0262,436.2779 L607.9592,436.2109 C606.9452,438.0339 605.0202,439.0479 602.8592,439.0479 C598.4022,439.0479 595.3972,435.9069 595.3972,431.0779 C595.3972,426.4859 598.3692,423.0079 603.5352,423.0079 C610.2212,423.0079 611.8762,428.4789 611.8762,435.3669 C611.8762,441.0059 609.6472,447.5909 602.9612,447.5909 C599.2132,447.5909 596.0392,444.9909 595.8362,441.1419 L599.6852,441.1419 Z" id="Fill-42" fill="#000000"></path>
            <path d="M631.5226,431.0449 C631.5226,433.6109 632.8386,436.0089 635.6416,436.0089 C638.5116,436.0089 639.9306,433.6449 639.9306,431.0449 C639.9306,428.5119 638.5116,426.2159 635.6416,426.2159 C632.8386,426.2159 631.5226,428.4789 631.5226,431.0449 L631.5226,431.0449 Z M631.9606,441.1419 C632.1296,443.0659 633.4136,444.3829 635.4056,444.3829 C639.5926,444.3829 640.0656,439.3859 640.3016,436.2779 L640.2346,436.2109 C639.2206,438.0339 637.2956,439.0479 635.1346,439.0479 C630.6776,439.0479 627.6726,435.9069 627.6726,431.0779 C627.6726,426.4859 630.6446,423.0079 635.8106,423.0079 C642.4966,423.0079 644.1516,428.4789 644.1516,435.3669 C644.1516,441.0059 641.9226,447.5909 635.2366,447.5909 C631.4886,447.5909 628.3146,444.9909 628.1116,441.1419 L631.9606,441.1419 Z" id="Fill-43" fill="#000000"></path>
            <path d="M672.5099,435.2998 C672.5099,430.3688 671.5649,426.2158 668.1879,426.2158 C664.8109,426.2158 663.8649,430.3688 663.8649,435.2998 C663.8649,440.2298 664.8109,444.3828 668.1879,444.3828 C671.5649,444.3828 672.5099,440.2298 672.5099,435.2998 M676.3599,435.2998 C676.3599,440.6688 674.9749,447.5908 668.1879,447.5908 C661.4009,447.5908 660.0159,440.6688 660.0159,435.2998 C660.0159,429.9308 661.4009,423.0078 668.1879,423.0078 C674.9749,423.0078 676.3599,429.9308 676.3599,435.2998" id="Fill-44" fill="#000000"></path>
            <polygon id="Fill-45" fill="#EBCE8E" points="618.9015 242.7842 633.2635 201.2232 873.6615 0.0002"></polygon>
            <polygon id="Fill-46" fill="#DBB557" points="873.6613 0 618.9013 242.784 659.9383 230.163"></polygon>
            <path d="M489.0685,102.5801 L488.0665,101.7971 C501.9735,84.0141 517.1605,69.9031 534.4935,58.6591 L535.1845,59.7261 C517.9715,70.8921 502.8865,84.9091 489.0685,102.5801" id="Fill-47" fill="#CDA028"></path>
            <path d="M775.4679,220.1748 L774.1969,220.1748 C774.1969,216.9708 774.0799,213.7418 773.8489,210.5778 C772.1599,187.4228 764.2659,165.1038 751.0199,146.0338 L752.0629,145.3098 C765.4399,164.5658 773.4109,187.1038 775.1159,210.4868 C775.3499,213.6798 775.4679,216.9398 775.4679,220.1748" id="Fill-48" fill="#CDA028"></path>
            <path d="M555.3019,125.085 L554.4349,124.157 C578.8389,101.358 610.6819,88.803 644.0959,88.803 L644.0959,90.074 C611.0049,90.074 579.4709,102.508 555.3019,125.085" id="Fill-49" fill="#CDA028"></path>
            <polygon id="Fill-50" fill="#CEA028" points="550.3752 84.1738 569.5892 99.9578 572.0992 98.2688 572.5922 99.0008 564.4362 104.4918 563.9422 103.7598 565.8252 102.4928 551.9282 91.1078 556.1012 109.0408 558.2442 107.5978 558.7372 108.3298 553.4042 111.9198 552.9112 111.1878 555.4212 109.4978 550.9272 90.1858 531.7132 74.4008 529.2562 76.0548 528.7632 75.3238 536.9192 69.8318 537.4112 70.5638 535.4252 71.9018 549.3222 83.2878 545.1492 65.3538 543.1102 66.7268 542.6172 65.9948 547.9502 62.4038 548.4422 63.1358 545.8812 64.8608"></polygon>
            <polygon id="Fill-51" fill="#CEA028" points="555.8664 58.1377 579.5224 93.2707 581.8224 91.7207 582.3154 92.4527 574.1594 97.9457 573.6674 97.2127 575.9674 95.6637 552.3114 60.5317 550.0114 62.0797 549.5184 61.3487 557.6744 55.8577 558.1674 56.5877"></polygon>
            <path d="M668.6535,30.5615 L668.6535,38.5475 L667.5355,38.5475 C667.5355,36.6845 666.8695,35.0875 665.5395,33.7555 C664.2075,32.4255 652.4435,31.7595 650.5805,31.7595 L649.3015,31.7595 L649.3015,85.4325 L652.8165,85.4325 L652.8165,86.5505 L640.3575,86.5505 L640.3575,85.4325 L643.8725,85.4325 L643.8725,31.7595 L642.5935,31.7595 C640.7285,31.7595 628.9655,32.4255 627.6345,33.7555 C626.3035,35.0875 625.6385,36.6845 625.6385,38.5475 L624.5205,38.5475 L624.5205,30.5615 L668.6535,30.5615 Z" id="Fill-52" fill="#CEA028"></path>
            <polygon id="Fill-53" fill="#CEA028" points="734.8058 59.6152 712.0308 95.3252 714.3678 96.8152 713.8938 97.5592 705.6048 92.2732 706.0778 91.5292 708.4158 93.0202 731.1918 57.3102 728.8538 55.8192 729.3278 55.0752 737.6178 60.3612 737.1428 61.1052"></polygon>
            <polygon id="Fill-54" fill="#CEA028" points="799.5168 120.0879 762.9838 141.5199 764.3868 143.9109 763.6258 144.3579 758.6518 135.8769 759.4128 135.4309 760.8158 137.8219 797.3478 116.3909 795.9448 113.9989 796.7048 113.5529 801.6798 122.0329 800.9188 122.4799"></polygon>
            <polygon id="Fill-55" fill="#CEA028" points="805.4484 130.1992 768.9154 151.6312 770.3194 154.0212 769.5574 154.4682 764.5834 145.9882 765.3444 145.5422 766.7474 147.9332 803.2794 126.5022 801.8764 124.1102 802.6364 123.6642 807.6124 132.1432 806.8504 132.5902"></polygon>
            <polygon id="Fill-56" fill="#CEA028" points="829.3752 198.6797 787.0352 199.7987 787.1082 202.5707 786.2272 202.5937 785.9672 192.7657 786.8492 192.7427 786.9222 195.5147 829.2622 194.3967 829.1882 191.6227 830.0702 191.6007 830.3302 201.4287 829.4482 201.4507"></polygon>
            <polygon id="Fill-57" fill="#CEA028" points="829.6847 210.3984 787.3447 211.5174 787.4177 214.2894 786.5367 214.3124 786.2767 204.4844 787.1587 204.4614 787.2317 207.2334 829.5717 206.1154 829.4977 203.3414 830.3797 203.3194 830.6397 213.1474 829.7577 213.1694"></polygon>
            <polygon id="Fill-58" fill="#CEA028" points="829.9943 222.1191 787.6543 223.2371 787.7273 226.0091 786.8463 226.0321 786.5863 216.2031 787.4683 216.1801 787.5413 218.9521 829.8813 217.8341 829.8073 215.0601 830.6893 215.0381 830.9493 224.8671 830.0673 224.8901"></polygon>
            <path d="M642.5646,20.5703 C610.9196,20.5703 580.6646,27.7753 552.6396,41.9843 C525.9106,55.5353 502.1666,75.3413 483.9736,99.2603 L484.9856,100.0303 C522.7786,50.3403 580.2136,21.8413 642.5646,21.8413 C691.3706,21.8413 738.1396,39.7263 774.4466,72.2173 L775.4446,71.4043 C738.8836,38.6203 691.7516,20.5703 642.5646,20.5703" id="Fill-59" fill="#CDA028"></path>
            <path d="M643.8576,24.8574 L643.8576,26.1284 C688.7926,26.1284 733.8016,43.5824 770.6866,75.2804 L771.6886,74.4634 C734.5416,42.4734 689.1666,24.8574 643.8576,24.8574" id="Fill-60" fill="#CDA028"></path>
            <path d="M726.3312,34.082 L725.8412,35.254 C744.0422,42.877 761.7372,54.216 778.4592,68.949 L779.4582,68.135 C762.5852,53.241 744.7182,41.781 726.3312,34.082" id="Fill-61" fill="#CDA028"></path>
            <path d="M797.4738,93.2656 L796.5478,94.1376 C834.7028,136.6446 840.4228,191.0136 840.4228,219.6996 C840.4228,247.5416 834.7548,274.4626 823.5768,299.7156 L824.7388,300.2296 C835.9898,274.8146 841.6948,247.7196 841.6948,219.6996 C841.6948,190.8266 835.9308,136.0896 797.4738,93.2656" id="Fill-62" fill="#CDA028"></path>
            <path d="M816.6984,134.6455 C816.8864,135.0525 817.0404,135.3835 817.1584,135.6315 L818.5044,134.9895 C818.3874,134.7465 818.2374,134.4195 818.0524,134.0195 C811.5404,119.9355 803.4934,107.2845 794.1374,96.4105 L793.0504,97.4365 C802.2964,108.1925 810.2544,120.7085 816.6984,134.6455" id="Fill-63" fill="#D59D20"></path>
            <polygon id="Fill-64" fill="#E9CD94" points="448.0031 87.5625 659.6031 204.0955 674.5921 241.5995"></polygon>
            <polygon id="Fill-65" fill="#D29F1C" points="623.9162 238.1211 674.5922 241.6001 448.0032 87.5621"></polygon>
            <path d="M647.0461,219.9326 C647.0461,222.2126 645.1971,224.0616 642.9171,224.0616 C640.6371,224.0616 638.7891,222.2126 638.7891,219.9326 C638.7891,217.6526 640.6371,215.8036 642.9171,215.8036 C645.1971,215.8036 647.0461,217.6526 647.0461,219.9326" id="Fill-66" fill="#FFFFFF"></path>
        </g>
    </g>
</svg>